<svg xmlns="http://www.w3.org/2000/svg" width="25" height="25" viewBox="0 0 25 25">
    <path fill="#FFFFFE" fill-rule="evenodd" d="M11.943 1.15c.208.125.44.306.698.544.248.25.492.557.73.92.228.341.43.745.606 1.213.145.466.217 1.01.217 1.634-.018 1.14-.28 2.053-.781 2.739a8.544 8.544 0 0 1-.78.917c-.305.28-.628.566-.971.856-.197.197-.378.42-.545.67-.196.259-.295.559-.295.901 0 .334.1.608.302.826.171.208.338.39.5.545l1.118.887a11.086 11.086 0 0 1 1.827 1.82c.493.675.75 1.556.772 2.644 0 1.546-.706 2.915-2.116 4.11-1.462 1.234-3.573 1.871-6.33 1.914-2.31-.021-4.033-.498-5.172-1.428C.576 21.99 0 20.95 0 19.739c0-.59.186-1.248.562-1.973.361-.724 1.018-1.361 1.97-1.91a10.503 10.503 0 0 1 3.363-1.18c1.164-.165 2.13-.26 2.898-.28a6.775 6.775 0 0 1-.635-.97c-.217-.333-.325-.735-.325-1.204 0-.281.04-.517.123-.704l.202-.548c-.374.041-.728.062-1.059.062-1.755-.02-3.092-.555-4.012-1.602-.964-.977-1.446-2.112-1.446-3.408 0-1.567.682-2.988 2.048-4.264.936-.746 1.91-1.233 2.92-1.463C7.609.098 8.546 0 9.419 0h6.591l-2.035 1.15h-2.032zm1.273 18.363a3.05 3.05 0 0 0-.818-2.116c-.578-.57-1.48-1.27-2.708-2.102-.21-.02-.457-.03-.74-.03-.168-.02-.598 0-1.29.061-.682.094-1.38.244-2.095.452a24.63 24.63 0 0 0-.707.28 4.368 4.368 0 0 0-.93.576c-.304.26-.561.581-.77.966-.243.405-.362.892-.362 1.463 0 1.12.523 2.044 1.573 2.77.998.726 2.36 1.1 4.093 1.12 1.553-.02 2.74-.353 3.557-.996.798-.633 1.197-1.447 1.197-2.444zm-4.595-9.35a2.943 2.943 0 0 1-1.831-.61 4.974 4.974 0 0 1-1.308-1.48c-.698-1.248-1.046-2.448-1.046-3.601a3.831 3.831 0 0 1 .716-2.37c.592-.676 1.334-1.025 2.228-1.046.675.021 1.272.214 1.792.577.508.384.918.884 1.231 1.497.665 1.277.997 2.546.997 3.803 0 .292-.024.65-.072 1.077a3.229 3.229 0 0 1-.538 1.247c-.578.572-1.301.874-2.17.905zM24.94 3.483v1.622h-3.458v3.347h-1.676V5.106H16.35V3.484h3.457V.136h1.676v3.348h3.458z"/>
</svg>
