<svg xmlns="http://www.w3.org/2000/svg" width="64" height="53" viewBox="0 0 64 53">
    <g fill="none" fill-rule="nonzero">
        <path d="M-4-10h72v72H-4z"/>
        <g fill="#FFF">
            <path d="M58 18.234a20 20 0 0 0-1.5-2.417V1.823h-1.875c-1.965 0-3.882.429-5.625 1.233V0h-1.875c-5.098 0-9.708 2.883-11.861 7.294h-7.139c-8.728 0-16.207 5.3-19.213 12.763H7.5c-4.136 0-7.5 3.272-7.5 7.294s3.365 7.293 7.5 7.293h1.411c.389.969.853 1.91 1.395 2.811a20.429 20.429 0 0 0 6.444 6.628V53h10.776l2.27-5.592h8.159L40.225 53H51v-8.917a20.598 20.598 0 0 0 3.428-2.767L64 31.738V18.234h-6zM7.662 31C5.642 31 4 29.43 4 27.5S5.643 24 7.662 24h.335A18.452 18.452 0 0 0 8 31h-.338zM49 7.582A10.677 10.677 0 0 1 53 6v6a22.518 22.518 0 0 0-4-2.31V7.583zm11 23.122l-8.512 8.607a16.92 16.92 0 0 1-3.565 2.756L47 42.6V50h-4.474l-2.27-5.65H26.994L24.724 50H20.25v-7.4l-.924-.534C14.19 39.094 11 33.615 11 27.766c0-9.143 7.57-16.582 16.875-16.582h9.717l.442-1.229C39.142 6.873 41.823 4.64 45 4v8.081l1.124.483c3.914 1.681 7.011 4.725 8.721 8.57l.492 1.105H60v8.465z"/>
            <rect width="4" height="4" x="45" y="18" rx="2"/>
        </g>
    </g>
</svg>
