<svg xmlns="http://www.w3.org/2000/svg" width="38" height="35" viewBox="0 0 38 35">
    <g fill="none" fill-rule="nonzero">
        <path d="M-1-3h40v40H-1z"/>
        <g fill="#FFF">
            <path d="M38 14.783C38 6.693 31.505.11 23.522.11H1.312C.589.11 0 .704 0 1.436c0 .147.016 3.646 1.409 7.193 1.938 4.934 5.546 7.542 10.436 7.542h.307l-1.185 2.392a1.33 1.33 0 0 0 .588 1.777c.188.095.388.14.585.14.482 0 .946-.268 1.175-.732l1.772-3.576h8.417c3.18 0 5.867 2.463 5.867 5.379 0 2.644-2.188 4.838-5.023 5.2a7.93 7.93 0 0 0-.678-2.044c-1.093-2.192-3.151-3.399-5.795-3.399H12.14c-.724 0-1.312.594-1.312 1.325 0 .169.022 1.692.796 3.26A5.974 5.974 0 0 0 13.45 28.1a5.972 5.972 0 0 0-1.826 2.205c-.774 1.569-.796 3.092-.796 3.26 0 .732.588 1.325 1.312 1.325h5.734c2.644 0 4.702-1.207 5.795-3.399.37-.743.572-1.476.681-2.06C31.951 28.992 38 22.59 38 14.783zm-20.125 9.175c1.642 0 2.759.613 3.415 1.873.143.275.25.554.33.816h-4.212c-1.64 0-2.752-.61-3.4-1.868a4.821 4.821 0 0 1-.327-.82h4.194zm3.45 6.341c-.651 1.305-1.78 1.94-3.45 1.94h-4.193c.072-.243.168-.5.293-.754.642-1.302 1.765-1.935 3.433-1.935h4.212c-.073.241-.17.497-.295.749zm6.72-26.628l-5.856 9.85h-6.57V2.761h7.902c1.601 0 3.129.324 4.523.91zM3.872 7.714C3.136 5.86 2.833 3.975 2.71 2.761h10.285v10.76h-1.15c-3.756 0-6.438-1.953-7.972-5.807zm21.286 5.962l5.183-8.72a12.06 12.06 0 0 1 4.976 8.648l-6.084 2.047a8.62 8.62 0 0 0-4.075-1.975zm6.597 9.746c.157-.6.24-1.227.24-1.871 0-1.31-.338-2.574-.972-3.709l4.241-1.427a12.06 12.06 0 0 1-3.509 7.007z"/>
            <path d="M7.81 4.713a1.317 1.317 0 0 0-1.313 1.325A1.32 1.32 0 0 0 7.81 7.363a1.316 1.316 0 0 0 1.312-1.325c0-.348-.139-.69-.385-.937a1.311 1.311 0 0 0-.927-.388z"/>
        </g>
    </g>
</svg>
