<svg xmlns="http://www.w3.org/2000/svg" xmlns:xlink="http://www.w3.org/1999/xlink" width="283" height="114" viewBox="0 0 283 114">
    <defs>
        <path id="a" d="M136.057 4.213c-4.003 2.06-7.452 4.704-10.253 7.858a34.479 34.479 0 0 0-6.407 10.538 40.045 40.045 0 0 0-2.574 11.51c-.167 2.275-.126 4.583.075 6.896-1.839.137-3.682.271-5.509.43-2.142.185-3.884.724-5.324 1.423-1.916-1.83-4.315-3.163-7.064-3.822a21.16 21.16 0 0 0-4.917-.559c-1.08 0-2.204.075-3.344.223-3.091.4-5.881 1.27-8.291 2.585a19.26 19.26 0 0 0-4.235 3.138c-.347-.171-.691-.349-1.052-.5 2.085-2.523 3.872-5.14 5.301-7.788 1.687-3.123 2.782-6.375 3.255-9.665.429-3.036.124-5.981-.906-8.77-1.11-2.99-3.027-5.554-5.704-7.63-2.458-1.904-5.547-3.271-9.182-4.064-2.043-.444-4.287-.668-6.674-.668-1.537 0-3.17.093-4.855.276-4.097.446-8.68 1.513-13.62 3.174-5.027 1.69-10.46 4.115-16.149 7.206-5.87 3.24-10.902 6.723-15.004 10.377-4.147 3.698-7.393 7.513-9.648 11.342C1.516 41.896.186 46.085.018 50.17c-.18 4.466 1.018 8.608 3.562 12.314 2.063 2.995 4.925 5.143 8.284 6.224a20.706 20.706 0 0 0 8.433.898 23.025 23.025 0 0 0 5.685-1.294c2.052 5.15 4.178 10.148 5.257 11.921 2.164 3.5 4.325 6.055 6.636 7.863 2.697 2.115 5.526 3.372 8.4 3.73.93.116 1.83.173 2.682.173 1.343 0 2.629-.143 3.822-.427 3.08-.73 5.513-2.596 6.853-5.254.868-1.724 1.272-3.673 1.204-5.798-.015-.418-.078-.856-.124-1.286a20.69 20.69 0 0 0 6.306.971 25.18 25.18 0 0 0 4.601-.441c4.633-.864 8.45-2.818 11.406-5.754 2.821 1.425 5.959 2.173 9.348 2.173 1.076 0 2.191-.074 3.317-.22 4.867-.63 8.945-2.46 12.12-5.439a17.177 17.177 0 0 0 3.048-3.82c.448.04.894.083 1.355.083.46 0 .931-.02 1.416-.062 2.497-.215 4.996-.41 7.498-.583a14.654 14.654 0 0 0 5.164-1.316c1.103 1.386 2.246 2.692 3.468 3.827 3.366 3.12 6.956 5.442 10.676 6.907 3.585 1.41 7.257 2.124 10.917 2.124 4.596-.107 8.235-.882 11.542-2.312 2.21-.958 4.212-2.221 6.03-3.714 1.628 1.939 3.541 3.385 5.74 4.243a19.502 19.502 0 0 0 5.816 1.304c.325.02.63.031.923.031 1.785 0 3.42-.354 4.88-1.054 2.273 1.185 4.69 1.833 7.653 2.12.639.063 1.28.094 1.9.094 2.643 0 5.094-.573 7.303-1.679 2.769 2.01 6.074 3.328 9.906 3.873a25.56 25.56 0 0 0 3.58.26c1.191 0 2.34-.124 3.469-.305.184.578.377 1.14.599 1.664 1.31 3.112 3.213 5.464 5.653 6.99a17.436 17.436 0 0 0 5.98 2.368c.778.15 1.555.225 2.308.225 1.976 0 3.873-.524 5.484-1.517 1.85-1.14 3.334-2.841 4.296-4.92.596-1.278 1.038-2.713 1.342-4.37.186-1.005.37-2.14.54-3.363a12.4 12.4 0 0 0 2.262-1.03c2.149-1.257 3.842-3.096 5.041-5.47a12.903 12.903 0 0 0 1.305-4.5c2.959-.166 5.612-1.934 6.86-4.623.722-1.544 2.127-5.576.437-11.078-3.291-10.675-12.163-14.989-16.886-15.964a24.97 24.97 0 0 0-6.325-.85c-1.539 0-3.026.168-4.42.5-3.402.806-6.394 2.772-8.654 5.684-.962 1.24-1.801 2.686-2.547 4.329a24.443 24.443 0 0 0-4.898-1.22c-1.263-.18-2.51-.27-3.708-.27a21.74 21.74 0 0 0-4.968.557 19.315 19.315 0 0 0-4.968 1.927c-.198-.221-.356-.47-.57-.682-1.67-1.647-3.72-2.865-6.102-3.624-.133-.233-.122-.42-.114-.608.154-3.692-1.069-7-3.536-9.575-2.303-2.398-5.653-3.771-9.918-4.155.031-1.145.007-2.3-.13-3.467-.37-3.167-1.385-6.277-3.017-9.244-1.694-3.074-4.066-5.785-7.054-8.063-2.967-2.26-6.563-3.968-10.692-5.076C160.92.377 157.884 0 154.668 0c-1.56 0-3.192.088-4.85.264-5.085.54-9.715 1.867-13.761 3.95z"/>
        <linearGradient id="b" x1="0%" y1="50%" y2="50%">
            <stop offset="0%" stop-color="#F7823D"/>
            <stop offset="100%" stop-color="#E83D5D"/>
        </linearGradient>
        <path id="d" d="M136.057 4.213c-4.003 2.06-7.452 4.704-10.253 7.858a34.479 34.479 0 0 0-6.407 10.538 40.045 40.045 0 0 0-2.574 11.51c-.167 2.275-.126 4.583.075 6.896-1.839.137-3.682.271-5.509.43-2.142.185-3.884.724-5.324 1.423-1.916-1.83-4.315-3.163-7.064-3.822a21.16 21.16 0 0 0-4.917-.559c-1.08 0-2.204.075-3.344.223-3.091.4-5.881 1.27-8.291 2.585a19.26 19.26 0 0 0-4.235 3.138c-.347-.171-.691-.349-1.052-.5 2.085-2.523 3.872-5.14 5.301-7.788 1.687-3.123 2.782-6.375 3.255-9.665.429-3.036.124-5.981-.906-8.77-1.11-2.99-3.027-5.554-5.704-7.63-2.458-1.904-5.547-3.271-9.182-4.064-2.043-.444-4.287-.668-6.674-.668-1.537 0-3.17.093-4.855.276-4.097.446-8.68 1.513-13.62 3.174-5.027 1.69-10.46 4.115-16.149 7.206-5.87 3.24-10.902 6.723-15.004 10.377-4.147 3.698-7.393 7.513-9.648 11.342C1.516 41.896.186 46.085.018 50.17c-.18 4.466 1.018 8.608 3.562 12.314 2.063 2.995 4.925 5.143 8.284 6.224a20.706 20.706 0 0 0 8.433.898 23.025 23.025 0 0 0 5.685-1.294c2.052 5.15 4.178 10.148 5.257 11.921 2.164 3.5 4.325 6.055 6.636 7.863 2.697 2.115 5.526 3.372 8.4 3.73.93.116 1.83.173 2.682.173 1.343 0 2.629-.143 3.822-.427 3.08-.73 5.513-2.596 6.853-5.254.868-1.724 1.272-3.673 1.204-5.798-.015-.418-.078-.856-.124-1.286a20.69 20.69 0 0 0 6.306.971 25.18 25.18 0 0 0 4.601-.441c4.633-.864 8.45-2.818 11.406-5.754 2.821 1.425 5.959 2.173 9.348 2.173 1.076 0 2.191-.074 3.317-.22 4.867-.63 8.945-2.46 12.12-5.439a17.177 17.177 0 0 0 3.048-3.82c.448.04.894.083 1.355.083.46 0 .931-.02 1.416-.062 2.497-.215 4.996-.41 7.498-.583a14.654 14.654 0 0 0 5.164-1.316c1.103 1.386 2.246 2.692 3.468 3.827 3.366 3.12 6.956 5.442 10.676 6.907 3.585 1.41 7.257 2.124 10.917 2.124 4.596-.107 8.235-.882 11.542-2.312 2.21-.958 4.212-2.221 6.03-3.714 1.628 1.939 3.541 3.385 5.74 4.243a19.502 19.502 0 0 0 5.816 1.304c.325.02.63.031.923.031 1.785 0 3.42-.354 4.88-1.054 2.273 1.185 4.69 1.833 7.653 2.12.639.063 1.28.094 1.9.094 2.643 0 5.094-.573 7.303-1.679 2.769 2.01 6.074 3.328 9.906 3.873a25.56 25.56 0 0 0 3.58.26c1.191 0 2.34-.124 3.469-.305.184.578.377 1.14.599 1.664 1.31 3.112 3.213 5.464 5.653 6.99a17.436 17.436 0 0 0 5.98 2.368c.778.15 1.555.225 2.308.225 1.976 0 3.873-.524 5.484-1.517 1.85-1.14 3.334-2.841 4.296-4.92.596-1.278 1.038-2.713 1.342-4.37.186-1.005.37-2.14.54-3.363a12.4 12.4 0 0 0 2.262-1.03c2.149-1.257 3.842-3.096 5.041-5.47a12.903 12.903 0 0 0 1.305-4.5c2.959-.166 5.612-1.934 6.86-4.623.722-1.544 2.127-5.576.437-11.078-3.291-10.675-12.163-14.989-16.886-15.964a24.97 24.97 0 0 0-6.325-.85c-1.539 0-3.026.168-4.42.5-3.402.806-6.394 2.772-8.654 5.684-.962 1.24-1.801 2.686-2.547 4.329a24.443 24.443 0 0 0-4.898-1.22c-1.263-.18-2.51-.27-3.708-.27a21.74 21.74 0 0 0-4.968.557 19.315 19.315 0 0 0-4.968 1.927c-.198-.221-.356-.47-.57-.682-1.67-1.647-3.72-2.865-6.102-3.624-.133-.233-.122-.42-.114-.608.154-3.692-1.069-7-3.536-9.575-2.303-2.398-5.653-3.771-9.918-4.155.031-1.145.007-2.3-.13-3.467-.37-3.167-1.385-6.277-3.017-9.244-1.694-3.074-4.066-5.785-7.054-8.063-2.967-2.26-6.563-3.968-10.692-5.076C160.92.377 157.884 0 154.668 0c-1.56 0-3.192.088-4.85.264-5.085.54-9.715 1.867-13.761 3.95z"/>
        <filter id="e" width="114.1%" height="140.2%" x="-7%" y="-12.5%" filterUnits="objectBoundingBox">
            <feOffset dy="7" in="SourceAlpha" result="shadowOffsetOuter1"/>
            <feGaussianBlur in="shadowOffsetOuter1" result="shadowBlurOuter1" stdDeviation="5"/>
            <feColorMatrix in="shadowBlurOuter1" values="0 0 0 0 0 0 0 0 0 0 0 0 0 0 0 0 0 0 0.3 0"/>
        </filter>
        <path id="g" d="M51.374.233c-3.475.384-7.468 1.32-11.943 2.846-4.472 1.527-9.465 3.765-14.904 6.763-5.432 3.043-9.934 6.228-13.53 9.478-3.595 3.254-6.286 6.47-8.106 9.604C1.071 32.06.124 35.041.011 37.85c-.112 2.812.631 5.364 2.189 7.667 1.069 1.575 2.445 2.63 4.124 3.18 1.682.548 3.393.733 5.144.555a14.52 14.52 0 0 0 4.924-1.373c1.533-.742 2.69-1.62 3.47-2.645.78-1.023 1.044-2.144.786-3.365-.255-1.219-1.317-2.36-3.2-3.405-3.292-1.847-4.86-4.168-4.619-7.012.242-2.84 2.4-6.099 6.583-9.695-.932 1.674-1.337 3.959-1.206 6.849.125 2.891.988 6.748 2.555 11.574 1.461 4.715 7.82 21.113 9.414 23.773 1.616 2.652 3.196 4.593 4.746 5.823 1.546 1.23 3.016 1.934 4.42 2.112 1.404.176 2.612.146 3.626-.098.752-.181 1.26-.542 1.53-1.085.27-.544.39-1.222.365-2.039-.028-.815-.176-1.763-.45-2.84-.276-1.078-.58-2.24-.919-3.484-.134-.427-4.654-13.721-4.79-14.145a25 25 0 0 1-.357-1.355c1.632-1.027 3.48-2.266 5.56-3.71a116.944 116.944 0 0 0 6.432-4.828c2.213-1.773 4.4-3.669 6.562-5.687a66.981 66.981 0 0 0 5.984-6.343c1.824-2.214 3.367-4.488 4.612-6.83 1.246-2.34 2.05-4.728 2.395-7.166.243-1.748.08-3.42-.5-5.019-.585-1.596-1.62-2.99-3.12-4.169-1.499-1.18-3.485-2.052-5.962-2.6C58.836.165 57.185 0 55.357 0c-1.246 0-2.574.077-3.983.233M36.873 12.315c3.435-.563 6.218-.367 8.324.558 2.107.924 3.52 2.42 4.255 4.466.734 2.048.726 4.31.003 6.786-.721 2.478-2.194 5.029-4.386 7.678-2.19 2.65-5.152 5.034-8.876 7.197a58.726 58.726 0 0 1-.19-5.972c.037-2.014.055-3.919.051-5.717a47.725 47.725 0 0 0-.248-4.962c-.161-1.51-.537-2.767-1.128-3.77-.59-1-1.45-1.69-2.58-2.06-1.13-.372-2.662-.326-4.594.148l-1.297.32c-.42.104-.823.23-1.207.37 4.449-2.81 8.438-4.477 11.873-5.042"/>
        <linearGradient id="h" x1="81.879%" x2="36.946%" y1="88.39%" y2="12.581%">
            <stop offset="0%" stop-color="#F7823D"/>
            <stop offset="100%" stop-color="#E83D5D"/>
        </linearGradient>
        <path id="j" d="M12.506.022C9.946.2 7.39.4 4.834.623c-1.817.158-3.143.778-3.97 1.85-.83 1.073-1.059 2.42-.7 4.037.283 1.26.924 2.18 1.918 2.765.995.585 2.184.815 3.574.694 2.502-.218 5.006-.414 7.511-.589 1.392-.097 2.522-.507 3.391-1.24.87-.73 1.347-1.739 1.428-3.026.1-1.654-.34-2.949-1.327-3.879C15.79.415 14.604 0 13.113 0c-.197 0-.4.007-.607.022"/>
        <linearGradient id="k" x1="50%" x2="50%" y1="99.998%" y2=".002%">
            <stop offset="0%" stop-color="#F7823D"/>
            <stop offset="100%" stop-color="#E83D5D"/>
        </linearGradient>
        <path id="m" d="M25.511.224c-4.053.445-7.638 1.508-10.73 3.155-3.089 1.647-5.689 3.712-7.795 6.168a27.17 27.17 0 0 0-4.858 8.282 33.65 33.65 0 0 0-2.036 9.437c-.229 3.23-.028 6.46.574 9.69a38.918 38.918 0 0 0 2.903 9.16c1.936 4.104 4.196 7.39 6.78 9.876 2.588 2.485 5.247 4.29 8.016 5.42 2.767 1.127 5.528 1.655 8.32 1.581 2.792-.073 5.341-.625 7.67-1.669a16.891 16.891 0 0 0 5.996-4.488c1.667-1.952 2.739-4.241 3.187-6.882.297-1.728.35-3.332.15-4.815-.201-1.481-.558-2.8-1.075-3.955-.516-1.153-1.152-2.093-1.906-2.818-.758-.724-1.547-1.194-2.36-1.41-.815-.213-1.608-.123-2.376.271-.766.395-1.419 1.12-1.951 2.174a13.508 13.508 0 0 1-3.2 4.16 16.958 16.958 0 0 1-4.4 2.844 15.285 15.285 0 0 1-4.977 1.264c-1.738.141-3.36-.082-4.88-.674-1.52-.593-2.888-1.567-4.112-2.929-1.223-1.36-2.138-3.187-2.743-5.483-.883-3.398-1.19-6.478-.89-9.246.3-2.766.971-5.185 2.018-7.251 1.045-2.065 2.396-3.788 4.051-5.159 1.657-1.37 3.376-2.371 5.153-3.002 1.775-.628 3.508-.884 5.187-.77 1.683.116 3.09.604 4.218 1.454 1.126.852 1.856 2.08 2.192 3.677.337 1.598.095 3.575-.706 5.934-.38 1.06-.397 2.073-.058 3.041.338.972.92 1.82 1.743 2.555.823.735 1.828 1.307 3.013 1.716 1.187.411 2.454.574 3.811.49 1.358-.082 2.743-.435 4.165-1.058 1.423-.623 2.772-1.604 4.057-2.948 1.284-1.343 2.206-2.999 2.76-4.979.552-1.976.712-4.06.465-6.25-.247-2.188-.929-4.351-2.062-6.484-1.133-2.13-2.738-4.028-4.822-5.675-2.084-1.644-4.673-2.91-7.76-3.768C34.193.29 31.922 0 29.44 0c-1.256 0-2.567.074-3.929.224"/>
        <linearGradient id="n" x1="50%" x2="50%" y1="100%" y2="0%">
            <stop offset="0%" stop-color="#F7823D"/>
            <stop offset="100%" stop-color="#E83D5D"/>
        </linearGradient>
        <path id="p" d="M6.19.523C4.665.981 3.44 1.882 2.52 3.218 1.599 4.557.94 6.374.537 8.671s-.574 5.238-.53 8.822c.038 3.698.34 6.66.896 8.888.556 2.23 1.263 3.952 2.121 5.173.858 1.221 1.834 2.05 2.933 2.489 1.102.44 2.22.696 3.359.773.836.055 1.483-.066 1.945-.37.461-.303.799-.745 1.014-1.328.216-.581.344-1.283.384-2.103.04-.818.059-1.715.053-2.688a1.332 1.332 0 0 0-.01-.253 1.175 1.175 0 0 1-.012-.253c.07-.967.277-1.672.623-2.113.344-.442.694-.668 1.045-.678.355-.01.65.2.89.63.24.432.289 1.034.15 1.808a9.533 9.533 0 0 0-.161 2.764c.081.925.38 1.78.893 2.571.513.791 1.3 1.465 2.36 2.027 1.062.563 2.521.93 4.38 1.114 1.856.185 3.465-.085 4.834-.815a8.909 8.909 0 0 0 3.326-3.056c.851-1.308 1.43-2.815 1.73-4.525.3-1.711.32-3.445.05-5.204-.565 1.096-1.139 1.884-1.726 2.36-.586.477-1.113.687-1.577.636-.468-.053-.818-.345-1.057-.877-.24-.532-.27-1.276-.086-2.232.22-1.326.181-2.52-.126-3.585-.307-1.064-.831-1.973-1.577-2.726-.747-.751-1.696-1.316-2.845-1.69-1.15-.371-2.436-.511-3.85-.411a9.333 9.333 0 0 0-3.103.804c-.978.446-1.89 1.01-2.736 1.694a73.221 73.221 0 0 0 2.743-5.593c.815-1.86 1.26-3.554 1.324-5.084.062-1.527-.379-2.8-1.327-3.81-.95-1.008-2.66-1.61-5.121-1.777A22.246 22.246 0 0 0 10.239 0C8.701 0 7.351.177 6.191.523"/>
        <linearGradient id="q" x1="50%" x2="50%" y1="100%" y2=".001%">
            <stop offset="0%" stop-color="#F7823D"/>
            <stop offset="100%" stop-color="#E83D5D"/>
        </linearGradient>
        <path id="s" d="M7.86.344c-1.684.4-3.111 1.086-4.282 2.05C2.407 3.358 1.517 4.585.9 6.07.283 7.554-.011 9.255 0 11.168c.007 2.966.972 5.365 2.866 7.215 1.897 1.853 4.394 2.987 7.523 3.436 3.13.45 5.848.065 8.196-1.179 2.345-1.241 3.954-3.27 4.803-6.113.582-1.98.75-3.765.496-5.358-.867 1.517-2.078 2.605-3.63 3.277-1.554.672-3.103.889-4.662.652-.974-.149-1.702-.464-2.19-.95 1.512.298 2.855.25 4.039-.15 1.184-.4 2.15-.98 2.901-1.745.749-.766 1.247-1.638 1.49-2.618.243-.98.154-1.9-.275-2.763-.608-1.268-1.608-2.299-3-3.08-1.394-.781-3.075-1.319-5.04-1.6A17.977 17.977 0 0 0 10.96 0c-1.1 0-2.135.115-3.1.344M13 9.527c.144-.5.331-.945.531-1.353.351-.72 1.297-1.144 1.78-1.171.325-.02.627.066.91.224.281.16.495.373.642.639.144.267.174.567.092.902-.184.757-.669 1.16-1.457 1.22-.11.008-.221.012-.333.012-.69 0-1.411-.158-2.165-.473"/>
        <linearGradient id="t" x1="50%" x2="50%" y1="100%" y2=".001%">
            <stop offset="0%" stop-color="#F7823D"/>
            <stop offset="100%" stop-color="#E83D5D"/>
        </linearGradient>
        <path id="v" d="M9.617.28c-1.61.386-2.985 1.324-4.12 2.804C4.363 4.563 3.41 6.67 2.634 9.402 1.857 12.134 1.211 15.66.674 19.976.08 24.396-.118 27.99.067 30.754c.187 2.766.61 4.942 1.272 6.532.663 1.59 1.497 2.705 2.513 3.347a9.187 9.187 0 0 0 3.19 1.287c.814.159 1.475.082 1.982-.234.508-.316.918-.81 1.228-1.488.311-.676.558-1.507.737-2.494.182-.986.351-2.07.511-3.25.145-1.108.31-2.269.495-3.482.186-1.213.443-2.448.777-3.708a3.56 3.56 0 0 0 2.29 1.12c.9.092 1.738-.093 2.52-.553.778-.461 1.419-1.187 1.916-2.183.497-.995.652-2.252.452-3.778-.378.794-.888 1.34-1.54 1.637-.65.299-1.25.362-1.8.19-.55-.17-.93-.58-1.141-1.23-.212-.65-.06-1.548.461-2.693l.001-.005c.49-.966.95-1.896 1.42-2.834l.004.015c4.05-6.977 10.136-.301 10.148-.238.014-.036 1.077-2.104.05-5.484C24.814 2.24 16.538.609 16.557.628l-.003.009A16.453 16.453 0 0 0 12.138 0c-.905 0-1.746.094-2.521.28M28 17"/>
        <linearGradient id="w" x1="50%" x2="50%" y1="100%" y2="0%">
            <stop offset="0%" stop-color="#F7823D"/>
            <stop offset="100%" stop-color="#E83D5D"/>
        </linearGradient>
        <path id="y" d="M10.036.318C7.969.709 6.21 1.367 4.766 2.282 3.325 3.2 2.206 4.303 1.409 5.59.609 6.876.153 8.322.03 9.922c-.124 1.602.136 3.301.767 5.1.968 2.79 2.656 4.738 5.049 5.868 2.395 1.132 5.124 1.393 8.228.806 3.104-.586 5.547-1.826 7.361-3.754 1.812-1.925 2.672-4.355 2.554-7.306-.067-1.904-.446-3.581-1.144-5.028-.698-1.446-1.65-2.625-2.86-3.532C18.775 1.17 17.332.55 15.656.223A12.684 12.684 0 0 0 13.235 0a17.27 17.27 0 0 0-3.2.318m4.42 9.84c-.794-1.9-.522-3.732.606-4.095 1.13-.363 2.689.881 3.484 2.78.794 1.898.522 3.731-.606 4.094a1.34 1.34 0 0 1-.413.063c-1.071 0-2.369-1.167-3.07-2.842m-9.218 3.42c-.522-2.186-.157-4.216.816-4.536.973-.318 2.185 1.195 2.708 3.38.522 2.187.157 4.216-.816 4.536a.842.842 0 0 1-.267.042c-.918 0-1.965-1.432-2.44-3.423"/>
        <linearGradient id="z" x1="50%" x2="50%" y1="99.999%" y2="0%">
            <stop offset="0%" stop-color="#F7823D"/>
            <stop offset="100%" stop-color="#E83D5D"/>
        </linearGradient>
        <path id="B" d="M5.34 1.437c-1.286.75-2.412 1.948-3.255 3.093C3.15 6.103 5.365 8.458 8.774 7.7c0 0-4.053 1.653-7.365-2.162C.692 6.746.247 8.101.075 9.606c-.156 1.361-.067 2.809.254 4.34 1.484.623 5.673 1.996 8.507-.895 0 0-2.042 3.312-8.093 2.47.787 2.535 2.158 4.425 4.104 5.688 1.644-.309 5.47-1.338 6.323-4.322-.311 1.153-1.448 4.291-4.709 5.182 2.055.877 4.382 1.135 7.01.771.65-.09 1.266-.218 1.863-.37.42-.87.936-2.624.559-5.684 0 0 1.159 3.137.432 5.392 1.843-.614 3.415-1.556 4.71-2.852.466-.467.875-.97 1.233-1.507-.053-1.087-.258-2.538-.942-3.335 0 0 1.058.704 1.394 2.573.815-1.51 1.247-3.264 1.278-5.275a14.953 14.953 0 0 0-.235-2.955 13.407 13.407 0 0 0-.737-2.604c-.423 1.78-1.302 3.224-2.632 4.347-1.33 1.122-2.771 1.781-4.333 1.983-1.015.13-1.798-.01-2.345-.43-.548-.42-.92-.941-1.116-1.566a3.991 3.991 0 0 1-.14-1.876c.102-.624.318-1.078.645-1.36.547-.467 1.538-1.26 1.934-1.85 1.062-1.578.084-4.56-2.664-5.306A5.504 5.504 0 0 0 10.953 0C8.978 0 6.54.738 5.34 1.437M11.007 17l-.007.023.007-.023"/>
        <linearGradient id="C" x1="50%" x2="50%" y1="100%" y2="-.001%">
            <stop offset="0%" stop-color="#F7823D"/>
            <stop offset="100%" stop-color="#E83D5D"/>
        </linearGradient>
    </defs>
    <g fill="none" fill-rule="evenodd">
        <g transform="translate(10 5)">
            <mask id="c" fill="#fff">
                <use xlink:href="#a"/>
            </mask>
            <path fill="url(#b)" d="M136.057 4.213c-4.003 2.06-7.452 4.704-10.253 7.858a34.479 34.479 0 0 0-6.407 10.538 40.045 40.045 0 0 0-2.574 11.51c-.167 2.275-.126 4.583.075 6.896-1.839.137-3.682.271-5.509.43-2.142.185-3.884.724-5.324 1.423-1.916-1.83-4.315-3.163-7.064-3.822a21.16 21.16 0 0 0-4.917-.559c-1.08 0-2.204.075-3.344.223-3.091.4-5.881 1.27-8.291 2.585a19.26 19.26 0 0 0-4.235 3.138c-.347-.171-.691-.349-1.052-.5 2.085-2.523 3.872-5.14 5.301-7.788 1.687-3.123 2.782-6.375 3.255-9.665.429-3.036.124-5.981-.906-8.77-1.11-2.99-3.027-5.554-5.704-7.63-2.458-1.904-5.547-3.271-9.182-4.064-2.043-.444-4.287-.668-6.674-.668-1.537 0-3.17.093-4.855.276-4.097.446-8.68 1.513-13.62 3.174-5.027 1.69-10.46 4.115-16.149 7.206-5.87 3.24-10.902 6.723-15.004 10.377-4.147 3.698-7.393 7.513-9.648 11.342C1.516 41.896.186 46.085.018 50.17c-.18 4.466 1.018 8.608 3.562 12.314 2.063 2.995 4.925 5.143 8.284 6.224a20.706 20.706 0 0 0 8.433.898 23.025 23.025 0 0 0 5.685-1.294c2.052 5.15 4.178 10.148 5.257 11.921 2.164 3.5 4.325 6.055 6.636 7.863 2.697 2.115 5.526 3.372 8.4 3.73.93.116 1.83.173 2.682.173 1.343 0 2.629-.143 3.822-.427 3.08-.73 5.513-2.596 6.853-5.254.868-1.724 1.272-3.673 1.204-5.798-.015-.418-.078-.856-.124-1.286a20.69 20.69 0 0 0 6.306.971 25.18 25.18 0 0 0 4.601-.441c4.633-.864 8.45-2.818 11.406-5.754 2.821 1.425 5.959 2.173 9.348 2.173 1.076 0 2.191-.074 3.317-.22 4.867-.63 8.945-2.46 12.12-5.439a17.177 17.177 0 0 0 3.048-3.82c.448.04.894.083 1.355.083.46 0 .931-.02 1.416-.062 2.497-.215 4.996-.41 7.498-.583a14.654 14.654 0 0 0 5.164-1.316c1.103 1.386 2.246 2.692 3.468 3.827 3.366 3.12 6.956 5.442 10.676 6.907 3.585 1.41 7.257 2.124 10.917 2.124 4.596-.107 8.235-.882 11.542-2.312 2.21-.958 4.212-2.221 6.03-3.714 1.628 1.939 3.541 3.385 5.74 4.243a19.502 19.502 0 0 0 5.816 1.304c.325.02.63.031.923.031 1.785 0 3.42-.354 4.88-1.054 2.273 1.185 4.69 1.833 7.653 2.12.639.063 1.28.094 1.9.094 2.643 0 5.094-.573 7.303-1.679 2.769 2.01 6.074 3.328 9.906 3.873a25.56 25.56 0 0 0 3.58.26c1.191 0 2.34-.124 3.469-.305.184.578.377 1.14.599 1.664 1.31 3.112 3.213 5.464 5.653 6.99a17.436 17.436 0 0 0 5.98 2.368c.778.15 1.555.225 2.308.225 1.976 0 3.873-.524 5.484-1.517 1.85-1.14 3.334-2.841 4.296-4.92.596-1.278 1.038-2.713 1.342-4.37.186-1.005.37-2.14.54-3.363a12.4 12.4 0 0 0 2.262-1.03c2.149-1.257 3.842-3.096 5.041-5.47a12.903 12.903 0 0 0 1.305-4.5c2.959-.166 5.612-1.934 6.86-4.623.722-1.544 2.127-5.576.437-11.078-3.291-10.675-12.163-14.989-16.886-15.964a24.97 24.97 0 0 0-6.325-.85c-1.539 0-3.026.168-4.42.5-3.402.806-6.394 2.772-8.654 5.684-.962 1.24-1.801 2.686-2.547 4.329a24.443 24.443 0 0 0-4.898-1.22c-1.263-.18-2.51-.27-3.708-.27a21.74 21.74 0 0 0-4.968.557 19.315 19.315 0 0 0-4.968 1.927c-.198-.221-.356-.47-.57-.682-1.67-1.647-3.72-2.865-6.102-3.624-.133-.233-.122-.42-.114-.608.154-3.692-1.069-7-3.536-9.575-2.303-2.398-5.653-3.771-9.918-4.155.031-1.145.007-2.3-.13-3.467-.37-3.167-1.385-6.277-3.017-9.244-1.694-3.074-4.066-5.785-7.054-8.063-2.967-2.26-6.563-3.968-10.692-5.076C160.92.377 157.884 0 154.668 0c-1.56 0-3.192.088-4.85.264-5.085.54-9.715 1.867-13.761 3.95z" mask="url(#c)"/>
        </g>
        <g transform="translate(10 5)">
            <mask id="f" fill="#fff">
                <use xlink:href="#d"/>
            </mask>
            <use fill="#000" filter="url(#e)" xlink:href="#d"/>
            <path fill="url(#b)" d="M136.057 4.213c-4.003 2.06-7.452 4.704-10.253 7.858a34.479 34.479 0 0 0-6.407 10.538 40.045 40.045 0 0 0-2.574 11.51c-.167 2.275-.126 4.583.075 6.896-1.839.137-3.682.271-5.509.43-2.142.185-3.884.724-5.324 1.423-1.916-1.83-4.315-3.163-7.064-3.822a21.16 21.16 0 0 0-4.917-.559c-1.08 0-2.204.075-3.344.223-3.091.4-5.881 1.27-8.291 2.585a19.26 19.26 0 0 0-4.235 3.138c-.347-.171-.691-.349-1.052-.5 2.085-2.523 3.872-5.14 5.301-7.788 1.687-3.123 2.782-6.375 3.255-9.665.429-3.036.124-5.981-.906-8.77-1.11-2.99-3.027-5.554-5.704-7.63-2.458-1.904-5.547-3.271-9.182-4.064-2.043-.444-4.287-.668-6.674-.668-1.537 0-3.17.093-4.855.276-4.097.446-8.68 1.513-13.62 3.174-5.027 1.69-10.46 4.115-16.149 7.206-5.87 3.24-10.902 6.723-15.004 10.377-4.147 3.698-7.393 7.513-9.648 11.342C1.516 41.896.186 46.085.018 50.17c-.18 4.466 1.018 8.608 3.562 12.314 2.063 2.995 4.925 5.143 8.284 6.224a20.706 20.706 0 0 0 8.433.898 23.025 23.025 0 0 0 5.685-1.294c2.052 5.15 4.178 10.148 5.257 11.921 2.164 3.5 4.325 6.055 6.636 7.863 2.697 2.115 5.526 3.372 8.4 3.73.93.116 1.83.173 2.682.173 1.343 0 2.629-.143 3.822-.427 3.08-.73 5.513-2.596 6.853-5.254.868-1.724 1.272-3.673 1.204-5.798-.015-.418-.078-.856-.124-1.286a20.69 20.69 0 0 0 6.306.971 25.18 25.18 0 0 0 4.601-.441c4.633-.864 8.45-2.818 11.406-5.754 2.821 1.425 5.959 2.173 9.348 2.173 1.076 0 2.191-.074 3.317-.22 4.867-.63 8.945-2.46 12.12-5.439a17.177 17.177 0 0 0 3.048-3.82c.448.04.894.083 1.355.083.46 0 .931-.02 1.416-.062 2.497-.215 4.996-.41 7.498-.583a14.654 14.654 0 0 0 5.164-1.316c1.103 1.386 2.246 2.692 3.468 3.827 3.366 3.12 6.956 5.442 10.676 6.907 3.585 1.41 7.257 2.124 10.917 2.124 4.596-.107 8.235-.882 11.542-2.312 2.21-.958 4.212-2.221 6.03-3.714 1.628 1.939 3.541 3.385 5.74 4.243a19.502 19.502 0 0 0 5.816 1.304c.325.02.63.031.923.031 1.785 0 3.42-.354 4.88-1.054 2.273 1.185 4.69 1.833 7.653 2.12.639.063 1.28.094 1.9.094 2.643 0 5.094-.573 7.303-1.679 2.769 2.01 6.074 3.328 9.906 3.873a25.56 25.56 0 0 0 3.58.26c1.191 0 2.34-.124 3.469-.305.184.578.377 1.14.599 1.664 1.31 3.112 3.213 5.464 5.653 6.99a17.436 17.436 0 0 0 5.98 2.368c.778.15 1.555.225 2.308.225 1.976 0 3.873-.524 5.484-1.517 1.85-1.14 3.334-2.841 4.296-4.92.596-1.278 1.038-2.713 1.342-4.37.186-1.005.37-2.14.54-3.363a12.4 12.4 0 0 0 2.262-1.03c2.149-1.257 3.842-3.096 5.041-5.47a12.903 12.903 0 0 0 1.305-4.5c2.959-.166 5.612-1.934 6.86-4.623.722-1.544 2.127-5.576.437-11.078-3.291-10.675-12.163-14.989-16.886-15.964a24.97 24.97 0 0 0-6.325-.85c-1.539 0-3.026.168-4.42.5-3.402.806-6.394 2.772-8.654 5.684-.962 1.24-1.801 2.686-2.547 4.329a24.443 24.443 0 0 0-4.898-1.22c-1.263-.18-2.51-.27-3.708-.27a21.74 21.74 0 0 0-4.968.557 19.315 19.315 0 0 0-4.968 1.927c-.198-.221-.356-.47-.57-.682-1.67-1.647-3.72-2.865-6.102-3.624-.133-.233-.122-.42-.114-.608.154-3.692-1.069-7-3.536-9.575-2.303-2.398-5.653-3.771-9.918-4.155.031-1.145.007-2.3-.13-3.467-.37-3.167-1.385-6.277-3.017-9.244-1.694-3.074-4.066-5.785-7.054-8.063-2.967-2.26-6.563-3.968-10.692-5.076C160.92.377 157.884 0 154.668 0c-1.56 0-3.192.088-4.85.264-5.085.54-9.715 1.867-13.761 3.95z" mask="url(#f)"/>
        </g>
        <path fill="#FFF" d="M256.382 34.959a24.79 24.79 0 0 0-6.301-.85c-1.533 0-3.014.167-4.403.498-3.389.807-6.37 2.774-8.62 5.685-.96 1.24-1.795 2.687-2.538 4.33a24.295 24.295 0 0 0-4.88-1.22 26.26 26.26 0 0 0-3.694-.271c-1.716 0-3.38.187-4.949.558a19.188 19.188 0 0 0-4.949 1.927c-.197-.222-.355-.471-.568-.683-1.663-1.647-3.706-2.864-6.078-3.623-.133-.234-.122-.421-.114-.609.154-3.691-1.065-7-3.522-9.575-2.295-2.398-5.633-3.771-9.88-4.154.03-1.146.006-2.3-.13-3.468-.369-3.167-1.38-6.276-3.007-9.244-1.687-3.074-4.05-5.785-7.026-8.063-2.956-2.26-6.538-3.967-10.652-5.076C172.308.377 169.283 0 166.081 0c-1.556 0-3.18.089-4.832.264-5.066.54-9.679 1.868-13.71 3.95-3.987 2.06-7.423 4.703-10.214 7.857a34.514 34.514 0 0 0-6.382 10.539 40.167 40.167 0 0 0-2.564 11.51c-.166 2.275-.126 4.582.074 6.896-1.832.137-3.667.27-5.488.428-2.133.186-3.87.725-5.303 1.425a15.257 15.257 0 0 0-7.038-3.822 21 21 0 0 0-4.898-.56c-1.075 0-2.196.075-3.331.223-3.08.4-5.859 1.27-8.26 2.585a19.192 19.192 0 0 0-4.218 3.139c-.347-.172-.689-.35-1.049-.5 2.078-2.524 3.858-5.14 5.282-7.789 1.68-3.122 2.77-6.375 3.242-9.665.427-3.036.122-5.98-.903-8.77-1.105-2.99-3.015-5.554-5.682-7.629-2.449-1.905-5.526-3.272-9.147-4.064-2.035-.444-4.27-.669-6.65-.669-1.53 0-3.157.093-4.835.277-4.081.445-8.647 1.513-13.568 3.173-5.008 1.691-10.42 4.115-16.088 7.206-5.848 3.24-10.86 6.723-14.947 10.378-4.132 3.698-7.364 7.513-9.612 11.34-2.45 4.175-3.776 8.363-3.942 12.45-.18 4.466 1.014 8.607 3.548 12.314 2.056 2.994 4.906 5.142 8.253 6.223a20.556 20.556 0 0 0 8.4.898 22.868 22.868 0 0 0 5.664-1.294c2.044 5.15 4.162 10.148 5.236 11.922 2.157 3.5 4.309 6.054 6.612 7.862 2.686 2.115 5.505 3.373 8.367 3.73.927.116 1.824.173 2.673.173a16.49 16.49 0 0 0 3.807-.426c3.068-.731 5.493-2.597 6.827-5.255.864-1.724 1.267-3.673 1.199-5.797-.014-.419-.077-.857-.123-1.287 1.988.636 4.09.971 6.282.971 1.48 0 3.022-.148 4.583-.44 4.615-.865 8.419-2.818 11.363-5.754 2.811 1.425 5.936 2.172 9.313 2.172 1.07 0 2.182-.074 3.303-.22 4.85-.63 8.912-2.46 12.075-5.438a17.192 17.192 0 0 0 3.037-3.82c.445.04.89.083 1.349.083.458 0 .928-.02 1.41-.062a437.65 437.65 0 0 1 7.47-.583 14.564 14.564 0 0 0 5.145-1.316c1.098 1.386 2.237 2.69 3.455 3.826 3.352 3.12 6.929 5.442 10.635 6.907 3.572 1.41 7.23 2.124 10.876 2.124 4.577-.106 8.203-.881 11.498-2.312 2.201-.958 4.195-2.22 6.006-3.714 1.623 1.94 3.528 3.385 5.719 4.243a19.38 19.38 0 0 0 5.794 1.304c.323.021.626.031.92.031 1.777 0 3.406-.353 4.86-1.053 2.265 1.184 4.673 1.832 7.625 2.12.636.062 1.274.094 1.893.094 2.632 0 5.074-.574 7.274-1.68 2.759 2.01 6.052 3.328 9.869 3.873 1.21.173 2.412.26 3.567.26 1.186 0 2.33-.124 3.455-.305.183.578.376 1.14.596 1.665 1.306 3.111 3.202 5.464 5.632 6.99a17.335 17.335 0 0 0 5.958 2.367c.774.15 1.548.225 2.3.225 1.968 0 3.857-.524 5.463-1.517 1.841-1.14 3.32-2.84 4.28-4.92.593-1.277 1.033-2.713 1.335-4.37.186-1.004.368-2.14.538-3.363.78-.265 1.535-.61 2.254-1.03 2.14-1.257 3.826-3.095 5.021-5.47a12.923 12.923 0 0 0 1.3-4.5c2.948-.165 5.59-1.934 6.834-4.623.72-1.543 2.119-5.576.436-11.077-3.278-10.676-12.117-14.99-16.822-15.964z"/>
        <g transform="translate(20 14)">
            <mask id="i" fill="#fff">
                <use xlink:href="#g"/>
            </mask>
            <path fill="url(#h)" d="M51.374.233c-3.475.384-7.468 1.32-11.943 2.846-4.472 1.527-9.465 3.765-14.904 6.763-5.432 3.043-9.934 6.228-13.53 9.478-3.595 3.254-6.286 6.47-8.106 9.604C1.071 32.06.124 35.041.011 37.85c-.112 2.812.631 5.364 2.189 7.667 1.069 1.575 2.445 2.63 4.124 3.18 1.682.548 3.393.733 5.144.555a14.52 14.52 0 0 0 4.924-1.373c1.533-.742 2.69-1.62 3.47-2.645.78-1.023 1.044-2.144.786-3.365-.255-1.219-1.317-2.36-3.2-3.405-3.292-1.847-4.86-4.168-4.619-7.012.242-2.84 2.4-6.099 6.583-9.695-.932 1.674-1.337 3.959-1.206 6.849.125 2.891.988 6.748 2.555 11.574 1.461 4.715 7.82 21.113 9.414 23.773 1.616 2.652 3.196 4.593 4.746 5.823 1.546 1.23 3.016 1.934 4.42 2.112 1.404.176 2.612.146 3.626-.098.752-.181 1.26-.542 1.53-1.085.27-.544.39-1.222.365-2.039-.028-.815-.176-1.763-.45-2.84-.276-1.078-.58-2.24-.919-3.484-.134-.427-4.654-13.721-4.79-14.145a25 25 0 0 1-.357-1.355c1.632-1.027 3.48-2.266 5.56-3.71a116.944 116.944 0 0 0 6.432-4.828c2.213-1.773 4.4-3.669 6.562-5.687a66.981 66.981 0 0 0 5.984-6.343c1.824-2.214 3.367-4.488 4.612-6.83 1.246-2.34 2.05-4.728 2.395-7.166.243-1.748.08-3.42-.5-5.019-.585-1.596-1.62-2.99-3.12-4.169-1.499-1.18-3.485-2.052-5.962-2.6C58.836.165 57.185 0 55.357 0c-1.246 0-2.574.077-3.983.233M36.873 12.315c3.435-.563 6.218-.367 8.324.558 2.107.924 3.52 2.42 4.255 4.466.734 2.048.726 4.31.003 6.786-.721 2.478-2.194 5.029-4.386 7.678-2.19 2.65-5.152 5.034-8.876 7.197a58.726 58.726 0 0 1-.19-5.972c.037-2.014.055-3.919.051-5.717a47.725 47.725 0 0 0-.248-4.962c-.161-1.51-.537-2.767-1.128-3.77-.59-1-1.45-1.69-2.58-2.06-1.13-.372-2.662-.326-4.594.148l-1.297.32c-.42.104-.823.23-1.207.37 4.449-2.81 8.438-4.477 11.873-5.042" mask="url(#i)"/>
        </g>
        <g transform="translate(120 49)">
            <mask id="l" fill="#fff">
                <use xlink:href="#j"/>
            </mask>
            <path fill="url(#k)" d="M12.506.022C9.946.2 7.39.4 4.834.623c-1.817.158-3.143.778-3.97 1.85-.83 1.073-1.059 2.42-.7 4.037.283 1.26.924 2.18 1.918 2.765.995.585 2.184.815 3.574.694 2.502-.218 5.006-.414 7.511-.589 1.392-.097 2.522-.507 3.391-1.24.87-.73 1.347-1.739 1.428-3.026.1-1.654-.34-2.949-1.327-3.879C15.79.415 14.604 0 13.113 0c-.197 0-.4.007-.607.022" mask="url(#l)"/>
        </g>
        <g transform="translate(138 8)">
            <mask id="o" fill="#fff">
                <use xlink:href="#m"/>
            </mask>
            <path fill="url(#n)" d="M25.511.224c-4.053.445-7.638 1.508-10.73 3.155-3.089 1.647-5.689 3.712-7.795 6.168a27.17 27.17 0 0 0-4.858 8.282 33.65 33.65 0 0 0-2.036 9.437c-.229 3.23-.028 6.46.574 9.69a38.918 38.918 0 0 0 2.903 9.16c1.936 4.104 4.196 7.39 6.78 9.876 2.588 2.485 5.247 4.29 8.016 5.42 2.767 1.127 5.528 1.655 8.32 1.581 2.792-.073 5.341-.625 7.67-1.669a16.891 16.891 0 0 0 5.996-4.488c1.667-1.952 2.739-4.241 3.187-6.882.297-1.728.35-3.332.15-4.815-.201-1.481-.558-2.8-1.075-3.955-.516-1.153-1.152-2.093-1.906-2.818-.758-.724-1.547-1.194-2.36-1.41-.815-.213-1.608-.123-2.376.271-.766.395-1.419 1.12-1.951 2.174a13.508 13.508 0 0 1-3.2 4.16 16.958 16.958 0 0 1-4.4 2.844 15.285 15.285 0 0 1-4.977 1.264c-1.738.141-3.36-.082-4.88-.674-1.52-.593-2.888-1.567-4.112-2.929-1.223-1.36-2.138-3.187-2.743-5.483-.883-3.398-1.19-6.478-.89-9.246.3-2.766.971-5.185 2.018-7.251 1.045-2.065 2.396-3.788 4.051-5.159 1.657-1.37 3.376-2.371 5.153-3.002 1.775-.628 3.508-.884 5.187-.77 1.683.116 3.09.604 4.218 1.454 1.126.852 1.856 2.08 2.192 3.677.337 1.598.095 3.575-.706 5.934-.38 1.06-.397 2.073-.058 3.041.338.972.92 1.82 1.743 2.555.823.735 1.828 1.307 3.013 1.716 1.187.411 2.454.574 3.811.49 1.358-.082 2.743-.435 4.165-1.058 1.423-.623 2.772-1.604 4.057-2.948 1.284-1.343 2.206-2.999 2.76-4.979.552-1.976.712-4.06.465-6.25-.247-2.188-.929-4.351-2.062-6.484-1.133-2.13-2.738-4.028-4.822-5.675-2.084-1.644-4.673-2.91-7.76-3.768C34.193.29 31.922 0 29.44 0c-1.256 0-2.567.074-3.929.224" mask="url(#o)"/>
        </g>
        <g transform="translate(184 35)">
            <mask id="r" fill="#fff">
                <use xlink:href="#p"/>
            </mask>
            <path fill="url(#q)" d="M6.19.523C4.665.981 3.44 1.882 2.52 3.218 1.599 4.557.94 6.374.537 8.671s-.574 5.238-.53 8.822c.038 3.698.34 6.66.896 8.888.556 2.23 1.263 3.952 2.121 5.173.858 1.221 1.834 2.05 2.933 2.489 1.102.44 2.22.696 3.359.773.836.055 1.483-.066 1.945-.37.461-.303.799-.745 1.014-1.328.216-.581.344-1.283.384-2.103.04-.818.059-1.715.053-2.688a1.332 1.332 0 0 0-.01-.253 1.175 1.175 0 0 1-.012-.253c.07-.967.277-1.672.623-2.113.344-.442.694-.668 1.045-.678.355-.01.65.2.89.63.24.432.289 1.034.15 1.808a9.533 9.533 0 0 0-.161 2.764c.081.925.38 1.78.893 2.571.513.791 1.3 1.465 2.36 2.027 1.062.563 2.521.93 4.38 1.114 1.856.185 3.465-.085 4.834-.815a8.909 8.909 0 0 0 3.326-3.056c.851-1.308 1.43-2.815 1.73-4.525.3-1.711.32-3.445.05-5.204-.565 1.096-1.139 1.884-1.726 2.36-.586.477-1.113.687-1.577.636-.468-.053-.818-.345-1.057-.877-.24-.532-.27-1.276-.086-2.232.22-1.326.181-2.52-.126-3.585-.307-1.064-.831-1.973-1.577-2.726-.747-.751-1.696-1.316-2.845-1.69-1.15-.371-2.436-.511-3.85-.411a9.333 9.333 0 0 0-3.103.804c-.978.446-1.89 1.01-2.736 1.694a73.221 73.221 0 0 0 2.743-5.593c.815-1.86 1.26-3.554 1.324-5.084.062-1.527-.379-2.8-1.327-3.81-.95-1.008-2.66-1.61-5.121-1.777A22.246 22.246 0 0 0 10.239 0C8.701 0 7.351.177 6.191.523" mask="url(#r)"/>
        </g>
        <g transform="translate(216 51)">
            <mask id="u" fill="#fff">
                <use xlink:href="#s"/>
            </mask>
            <path fill="url(#t)" d="M7.86.344c-1.684.4-3.111 1.086-4.282 2.05C2.407 3.358 1.517 4.585.9 6.07.283 7.554-.011 9.255 0 11.168c.007 2.966.972 5.365 2.866 7.215 1.897 1.853 4.394 2.987 7.523 3.436 3.13.45 5.848.065 8.196-1.179 2.345-1.241 3.954-3.27 4.803-6.113.582-1.98.75-3.765.496-5.358-.867 1.517-2.078 2.605-3.63 3.277-1.554.672-3.103.889-4.662.652-.974-.149-1.702-.464-2.19-.95 1.512.298 2.855.25 4.039-.15 1.184-.4 2.15-.98 2.901-1.745.749-.766 1.247-1.638 1.49-2.618.243-.98.154-1.9-.275-2.763-.608-1.268-1.608-2.299-3-3.08-1.394-.781-3.075-1.319-5.04-1.6A17.977 17.977 0 0 0 10.96 0c-1.1 0-2.135.115-3.1.344M13 9.527c.144-.5.331-.945.531-1.353.351-.72 1.297-1.144 1.78-1.171.325-.02.627.066.91.224.281.16.495.373.642.639.144.267.174.567.092.902-.184.757-.669 1.16-1.457 1.22-.11.008-.221.012-.333.012-.69 0-1.411-.158-2.165-.473" mask="url(#u)"/>
        </g>
        <g transform="translate(239 42)">
            <mask id="x" fill="#fff">
                <use xlink:href="#v"/>
            </mask>
            <path fill="url(#w)" d="M9.617.28c-1.61.386-2.985 1.324-4.12 2.804C4.363 4.563 3.41 6.67 2.634 9.402 1.857 12.134 1.211 15.66.674 19.976.08 24.396-.118 27.99.067 30.754c.187 2.766.61 4.942 1.272 6.532.663 1.59 1.497 2.705 2.513 3.347a9.187 9.187 0 0 0 3.19 1.287c.814.159 1.475.082 1.982-.234.508-.316.918-.81 1.228-1.488.311-.676.558-1.507.737-2.494.182-.986.351-2.07.511-3.25.145-1.108.31-2.269.495-3.482.186-1.213.443-2.448.777-3.708a3.56 3.56 0 0 0 2.29 1.12c.9.092 1.738-.093 2.52-.553.778-.461 1.419-1.187 1.916-2.183.497-.995.652-2.252.452-3.778-.378.794-.888 1.34-1.54 1.637-.65.299-1.25.362-1.8.19-.55-.17-.93-.58-1.141-1.23-.212-.65-.06-1.548.461-2.693l.001-.005c.49-.966.95-1.896 1.42-2.834l.004.015c4.05-6.977 10.136-.301 10.148-.238.014-.036 1.077-2.104.05-5.484C24.814 2.24 16.538.609 16.557.628l-.003.009A16.453 16.453 0 0 0 12.138 0c-.905 0-1.746.094-2.521.28M28 17" mask="url(#x)"/>
        </g>
        <g fill="#FFF">
            <path d="M183.613 29.953c.562-.994 1.043-2.413 1.256-3.708a10.068 10.068 0 0 0-.082-4.036c-.672-2.716-2.343-5.35-4.787-7.209 2.805 1.299 5.222 3.603 6.7 6.522.743 1.49 1.165 3.165 1.266 4.835.098 1.71 0 3.287-.495 5.119-.296 1.093-1.443 1.744-2.563 1.456-1.12-.29-1.788-1.41-1.492-2.503.044-.162.107-.315.186-.456l.011-.02zM179.299 50.358c.532 1.683.679 3.116.701 4.684 0 1.534-.24 3.068-.732 4.486-.484 1.417-1.204 2.73-2.145 3.792-.89 1.11-2.014 1.934-3.123 2.68.92-1.005 1.785-2.04 2.352-3.24.622-1.158.963-2.432 1.09-3.688.13-1.257.035-2.516-.245-3.721-.271-1.167-.76-2.442-1.283-3.286l-.005-.01c-.57-.917-.318-2.143.56-2.737.879-.594 2.052-.332 2.621.586.088.142.16.3.209.454M75.927 16.092c2.147-.211 3.877-.054 5.835.422 1.885.478 3.855 1.468 5.204 3.079 1.316 1.622 1.93 3.545 2.023 5.348.083 1.816-.3 3.506-.857 5.061-1.14 3.113-2.928 5.797-4.913 8.262-1.992 2.463-4.237 4.688-6.614 6.736 2.079-2.335 3.98-4.808 5.575-7.432 1.588-2.61 2.91-5.4 3.522-8.227.623-2.764.304-5.79-1.593-7.035-.88-.612-1.976-.878-3.205-.897-1.168-.025-2.658.22-3.62.585-1.618.613-3.44-.166-4.069-1.74-.63-1.574.171-3.346 1.789-3.959.265-.1.537-.164.808-.192l.115-.01zM24.465 46a14.817 14.817 0 0 0-.466 5.353c.196 1.751.79 3.41 1.836 4.666.91 1.172 2.546 1.767 3.985 1.831 1.478.058 2.762-.517 3.743-1.46a2.038 2.038 0 0 1 2.866.046 2 2 0 0 1-.329 3.071l-.094.062c-1.943 1.274-4.473 1.756-6.642 1.207-2.137-.537-4.1-1.745-5.156-3.7-1.011-1.795-1.306-3.82-1.181-5.707A15.314 15.314 0 0 1 24.465 46M242.038 74c-.116-4.85.007-9.72.745-14.594.2-1.218.419-2.439.768-3.655.332-1.224.795-2.432 1.232-3.615.95-2.354 2.27-4.843 4.816-6.68l.078-.056c.914-.659 2.214-.486 2.904.386.69.873.51 2.114-.404 2.774a2.255 2.255 0 0 1-.416.232c-1.802.756-3.418 2.47-4.708 4.418-1.384 1.963-2.06 4.174-2.726 6.496-1.227 4.636-1.883 9.467-2.289 14.294M196 53c.878-2.04 1.48-4.19 1.782-6.304.288-2.112.172-4.22-.484-5.843-.419-1.035.025-2.236.992-2.684.966-.448 2.09.027 2.507 1.062.083.203.132.412.15.621l.008.106c.23 2.759-.452 5.201-1.381 7.331A24.858 24.858 0 0 1 196 53M235 72.415c-1.394.349-2.84.53-4.31.579-1.47.031-2.982-.05-4.49-.467-1.501-.408-3.011-1.13-4.307-2.282-1.306-1.167-2.164-2.76-2.765-4.412a2.112 2.112 0 0 1 1.247-2.704 2.092 2.092 0 0 1 2.8 1.71l.014.115c.136 1.106.37 2.233 1.019 3.194.646.953 1.596 1.79 2.743 2.43 1.143.654 2.47 1.07 3.83 1.376 1.366.29 2.786.464 4.219.46M126 58.918c2.017-.186 4.017-.556 5.906-1.142.937-.306 1.843-.686 2.62-1.174.779-.477 1.377-1.132 1.474-1.753a1.005 1.005 0 1 1 1.929.525l-.036.089c-.546 1.342-1.68 2.034-2.673 2.456-1.026.429-2.06.663-3.089.823-2.06.285-4.105.318-6.131.176"/>
        </g>
        <g transform="translate(68 51)">
            <mask id="A" fill="#fff">
                <use xlink:href="#y"/>
            </mask>
            <path fill="url(#z)" d="M10.036.318C7.969.709 6.21 1.367 4.766 2.282 3.325 3.2 2.206 4.303 1.409 5.59.609 6.876.153 8.322.03 9.922c-.124 1.602.136 3.301.767 5.1.968 2.79 2.656 4.738 5.049 5.868 2.395 1.132 5.124 1.393 8.228.806 3.104-.586 5.547-1.826 7.361-3.754 1.812-1.925 2.672-4.355 2.554-7.306-.067-1.904-.446-3.581-1.144-5.028-.698-1.446-1.65-2.625-2.86-3.532C18.775 1.17 17.332.55 15.656.223A12.684 12.684 0 0 0 13.235 0a17.27 17.27 0 0 0-3.2.318m4.42 9.84c-.794-1.9-.522-3.732.606-4.095 1.13-.363 2.689.881 3.484 2.78.794 1.898.522 3.731-.606 4.094a1.34 1.34 0 0 1-.413.063c-1.071 0-2.369-1.167-3.07-2.842m-9.218 3.42c-.522-2.186-.157-4.216.816-4.536.973-.318 2.185 1.195 2.708 3.38.522 2.187.157 4.216-.816 4.536a.842.842 0 0 1-.267.042c-.918 0-1.965-1.432-2.44-3.423" mask="url(#A)"/>
        </g>
        <g transform="translate(92 48)">
            <mask id="D" fill="#fff">
                <use xlink:href="#B"/>
            </mask>
            <path fill="url(#C)" d="M5.34 1.437c-1.286.75-2.412 1.948-3.255 3.093C3.15 6.103 5.365 8.458 8.774 7.7c0 0-4.053 1.653-7.365-2.162C.692 6.746.247 8.101.075 9.606c-.156 1.361-.067 2.809.254 4.34 1.484.623 5.673 1.996 8.507-.895 0 0-2.042 3.312-8.093 2.47.787 2.535 2.158 4.425 4.104 5.688 1.644-.309 5.47-1.338 6.323-4.322-.311 1.153-1.448 4.291-4.709 5.182 2.055.877 4.382 1.135 7.01.771.65-.09 1.266-.218 1.863-.37.42-.87.936-2.624.559-5.684 0 0 1.159 3.137.432 5.392 1.843-.614 3.415-1.556 4.71-2.852.466-.467.875-.97 1.233-1.507-.053-1.087-.258-2.538-.942-3.335 0 0 1.058.704 1.394 2.573.815-1.51 1.247-3.264 1.278-5.275a14.953 14.953 0 0 0-.235-2.955 13.407 13.407 0 0 0-.737-2.604c-.423 1.78-1.302 3.224-2.632 4.347-1.33 1.122-2.771 1.781-4.333 1.983-1.015.13-1.798-.01-2.345-.43-.548-.42-.92-.941-1.116-1.566a3.991 3.991 0 0 1-.14-1.876c.102-.624.318-1.078.645-1.36.547-.467 1.538-1.26 1.934-1.85 1.062-1.578.084-4.56-2.664-5.306A5.504 5.504 0 0 0 10.953 0C8.978 0 6.54.738 5.34 1.437M11.007 17l-.007.023.007-.023" mask="url(#D)"/>
        </g>
        <path fill="#E83E5D" d="M117.198 53L114 50.67s1.191-.432 2.755.699c0 0 .613-1.136 2.245-1.369l-1.802 3z"/>
    </g>
</svg>
