<svg xmlns="http://www.w3.org/2000/svg" width="124" height="124" viewBox="0 0 124 124">
    <defs>
        <linearGradient id="a" x1="13.972%" x2="85.872%" y1="9.999%" y2="91.764%">
            <stop offset="0%" stop-color="#F67A41"/>
            <stop offset="100%" stop-color="#E83E5D"/>
        </linearGradient>
    </defs>
    <g fill="none" fill-rule="evenodd">
        <circle cx="62" cy="62" r="62" fill="url(#a)"/>
        <g transform="translate(21.65 18.698)">
            <path fill="#A31E2D" fill-opacity=".3" d="M102.35 43.188a61.94 61.94 0 0 0-3.097-19.386L75.498.093s-2.51 5.151-12.35 8.78c-7.3 2.691-10.14 7.395-11.088 11.668-3.148-.825-7.06-1.28-11.947-1.28-3.557 0-6.597.243-9.203.692l-6.165-6.133c-1.73-1.929-4.192-3.666-7.666-4.947-3.142-1.159-5.535-2.473-7.34-3.724L4.73.093S.496 7.158.143 14.975c-.203 4.517.829 9.405 4.31 13.23l10.152 10.06.015.018C13.151 48.346 4.026 50.362 4.026 66.237c0 5.244 2.333 9.335 5.975 12.465l26.548 26.496c1.18.066 2.368.104 3.564.104 34.372 0 62.236-27.81 62.236-62.114z"/>
            <path fill="#FFC9D0" d="M64.91 34.08c12.381-2.886 15.515-11.52 15.173-19.106C79.73 7.157 75.497.094 75.497.094s-2.51 5.15-12.35 8.779c-7.299 2.691-10.139 7.395-11.087 11.668-3.148-.825-7.061-1.28-11.947-1.28-4.886 0-8.799.455-11.947 1.28-.948-4.273-3.788-8.977-11.087-11.668C7.24 5.244 4.73.093 4.73.093S.496 7.157.143 14.974c-.341 7.586 2.792 16.22 15.172 19.106a51.14 51.14 0 0 0-.66 3.963C13.298 48.316 4.026 50.235 4.026 66.236S25.737 87.5 40.113 87.5c14.376 0 36.087-5.262 36.087-21.263s-9.272-17.92-10.63-28.193a51.25 51.25 0 0 0-.66-3.963z"/>
            <path fill="#FFA8B4" d="M65.572 38.042C66.928 48.315 76.2 50.234 76.2 66.236 76.2 82.237 54.488 87.5 40.113 87.5V19.262c4.887 0 8.798.454 11.947 1.28.948-4.274 3.787-8.978 11.088-11.669 9.838-3.63 12.35-8.78 12.35-8.78s4.232 7.065 4.585 14.882c.343 7.585-2.791 16.22-15.173 19.105a51.98 51.98 0 0 1 .662 3.962z"/>
            <path fill="#FF738E" d="M24.6 21.765c-.822-2.942-3.003-6.214-8.442-7.542C9.357 12.56 7.3 9.335 7.3 9.335S5.03 14.34 5.39 19.551c.34 4.904 2.926 10.213 10.774 11.419 1.335-3.874 3.707-7.121 8.435-9.205z"/>
            <path fill="#E83E5D" d="M64.062 30.97c7.848-1.206 10.434-6.515 10.773-11.42.36-5.21-1.91-10.215-1.91-10.215s-2.056 3.226-8.857 4.888c-5.439 1.328-7.62 4.6-8.441 7.542 4.728 2.084 7.1 5.33 8.435 9.205z"/>
            <path fill="#FF738E" d="M44.097 71.13h-7.968c-4.69 0-8.529-3.83-8.529-8.512V60.78c0-4.682 3.838-8.512 8.53-8.512h7.967c4.691 0 8.529 3.83 8.529 8.512v1.838c0 4.681-3.838 8.512-8.53 8.512z"/>
            <path fill="#E83E5D" d="M52.626 60.779v1.84c0 3.384-2.008 6.327-4.896 7.693a8.442 8.442 0 0 1-3.632.818h-3.985V52.267h3.985c4.69 0 8.528 3.832 8.528 8.512z"/>
            <g transform="translate(31.847 57.503)">
                <ellipse cx="2.955" cy="4.195" fill="#FF3D62" rx="2.854" ry="4.09"/>
                <ellipse cx="13.577" cy="4.195" fill="#C22442" rx="2.854" ry="4.09"/>
            </g>
            <g transform="translate(20.907 42.946)">
                <ellipse cx="3.18" cy="3.144" fill="#57555C" rx="3.03" ry="3.024"/>
                <ellipse cx="35.231" cy="3.144" fill="#3C3B41" rx="3.03" ry="3.024"/>
            </g>
            <rect width="21" height="2" x="30" y="74" fill="#C22442" fill-rule="nonzero" rx="1"/>
        </g>
    </g>
</svg>
