<svg xmlns="http://www.w3.org/2000/svg" width="124" height="124" viewBox="0 0 124 124">
    <defs>
        <linearGradient id="a" x1="13.972%" x2="85.872%" y1="9.999%" y2="91.764%">
            <stop offset="0%" stop-color="#F67A41"/>
            <stop offset="100%" stop-color="#E83E5D"/>
        </linearGradient>
    </defs>
    <g fill="none" fill-rule="evenodd">
        <circle cx="62" cy="62" r="62" fill="url(#a)"/>
        <path fill="#A31E2D" fill-opacity=".3" d="M124 61.887a61.94 61.94 0 0 0-3.096-19.387L97.15 18.792s-2.51 5.15-12.35 8.78c-7.3 2.69-10.14 7.395-11.088 11.667-3.148-.824-7.061-1.28-11.947-1.28-3.558 0-6.597.243-9.203.693l-6.165-6.133c-1.73-1.93-4.192-3.667-7.666-4.948-3.142-1.158-5.535-2.472-7.34-3.724l-5.01-5.055s-4.233 7.064-4.586 14.881c-.203 4.517.829 9.405 4.31 13.231l10.152 10.06.015.018C34.802 67.044 25.677 69.06 25.677 84.935c0 5.245 2.333 9.335 5.975 12.465L58.2 123.897c1.18.066 2.368.103 3.564.103C96.136 124 124 96.19 124 61.887z"/>
        <path fill="#FFC9D0" d="M86.562 52.779c12.38-2.887 15.514-11.521 15.172-19.106-.353-7.817-4.586-14.881-4.586-14.881s-2.51 5.15-12.35 8.78c-7.299 2.69-10.14 7.395-11.087 11.667-3.148-.824-7.061-1.28-11.947-1.28-4.886 0-8.799.456-11.947 1.28-.948-4.272-3.788-8.976-11.087-11.668-9.84-3.629-12.35-8.78-12.35-8.78s-4.233 7.065-4.586 14.882c-.342 7.585 2.792 16.22 15.172 19.106a51.14 51.14 0 0 0-.66 3.963c-1.357 10.272-10.63 12.192-10.63 28.193 0 16 21.712 21.262 36.088 21.262 14.376 0 36.087-5.261 36.087-21.262 0-16.002-9.272-17.92-10.63-28.194a51.25 51.25 0 0 0-.66-3.962z"/>
        <path fill="#FFA8B4" d="M87.222 56.74c1.357 10.273 10.63 12.193 10.63 28.194 0 16.002-21.713 21.264-36.088 21.264V37.961c4.886 0 8.798.454 11.946 1.279.948-4.273 3.788-8.978 11.089-11.669 9.838-3.63 12.35-8.78 12.35-8.78s4.232 7.065 4.585 14.883c.342 7.584-2.791 16.22-15.173 19.104a51.98 51.98 0 0 1 .661 3.962z"/>
        <path fill="#FF738E" d="M46.25 40.463c-.821-2.941-3.002-6.213-8.441-7.542-6.802-1.662-8.858-4.887-8.858-4.887s-2.27 5.005-1.91 10.215c.34 4.904 2.926 10.213 10.773 11.419 1.336-3.874 3.708-7.12 8.436-9.205z"/>
        <path fill="#E83E5D" d="M85.713 49.668c7.847-1.206 10.434-6.514 10.773-11.419.36-5.21-1.91-10.215-1.91-10.215s-2.056 3.225-8.857 4.887c-5.44 1.329-7.62 4.6-8.441 7.542 4.728 2.084 7.1 5.33 8.435 9.205z"/>
        <path fill="#C22442" d="M61.764 92.872c4.26 0 7.714 2.844 7.714 5.118 0 2.275-3.857-2.984-7.714-2.984s-7.714 5.26-7.714 2.984c0-2.274 3.454-5.118 7.714-5.118z"/>
        <g fill="#57555C">
            <path d="M81 62.604L80.396 62 78 64.396 75.604 62l-.604.604L77.396 65 75 67.396l.604.604L78 65.604 80.396 68l.604-.604L78.604 65zM48.65 62.303l-.603-.605-2.396 2.396-2.396-2.396-.604.605 2.396 2.395-2.396 2.396.604.604 2.396-2.395 2.396 2.395.604-.604-2.396-2.396z"/>
        </g>
        <path fill="#FF738E" d="M65.748 89.828H57.78c-4.691 0-8.529-3.83-8.529-8.512v-1.837c0-4.682 3.838-8.513 8.53-8.513h7.967c4.69 0 8.529 3.83 8.529 8.513v1.837c0 4.682-3.838 8.512-8.53 8.512z"/>
        <path fill="#E83E5D" d="M74.277 79.477v1.84c0 3.384-2.008 6.327-4.896 7.693a8.442 8.442 0 0 1-3.633.818h-3.984V70.966h3.984c4.69 0 8.529 3.831 8.529 8.511z"/>
        <g transform="translate(53.498 76.202)">
            <ellipse cx="2.955" cy="4.195" fill="#FF3D62" rx="2.854" ry="4.09"/>
            <ellipse cx="13.577" cy="4.195" fill="#C22442" rx="2.854" ry="4.09"/>
        </g>
    </g>
</svg>
