<?xml version="1.0" encoding="utf-8"?>
<svg width="24" height="24" viewBox="0 0 24 24" fill="red" xmlns="http://www.w3.org/2000/svg">
  <defs>
    <linearGradient id="gradient-0" gradientUnits="userSpaceOnUse" x1="12.3" y1="3.133" x2="12.3" y2="21.29">
      <stop offset="0" style="stop-color: rgb(248, 130, 61);"/>
      <stop offset="1" style="stop-color: rgb(232, 63, 93);"/>
    </linearGradient>
  </defs>
  <path d="M0 0h24v24H0z" fill="none"/>
  <path d="M8.1 13.34l2.83-2.83L3.91 3.5c-1.56 1.56-1.56 4.09 0 5.66l4.19 4.18zm6.78-1.81c1.53.71 3.68.21 5.27-1.38 1.91-1.91 2.28-4.65.81-6.12-1.46-1.46-4.2-1.1-6.12.81-1.59 1.59-2.09 3.74-1.38 5.27L3.7 19.87l1.41 1.41L12 14.41l6.88 6.88 1.41-1.41L13.41 13l1.47-1.47z" style="fill: url(#gradient-0);"/>
</svg>