<?xml version="1.0" encoding="utf-8"?>
<svg viewBox="0 0 24 24" width="24" height="24" xmlns="http://www.w3.org/2000/svg">
  <defs>
    <linearGradient id="gradient-3" gradientUnits="userSpaceOnUse" x1="12" y1="1" x2="12" y2="21" spreadMethod="pad">
      <stop offset="0" style="stop-color: rgb(248, 130, 61);"/>
      <stop offset="1" style="stop-color: rgb(232, 63, 93);"/>
    </linearGradient>
  </defs>
  <path d="M0 0h24v24H0z" fill="none"/>
  <path d="M19 3h-4.18C14.4 1.84 13.3 1 12 1c-1.3 0-2.4.84-2.82 2H5c-1.1 0-2 .9-2 2v14c0 1.1.9 2 2 2h14c1.1 0 2-.9 2-2V5c0-1.1-.9-2-2-2zm-7 0c.55 0 1 .45 1 1s-.45 1-1 1-1-.45-1-1 .45-1 1-1zm2 14H7v-2h7v2zm3-4H7v-2h10v2zm0-4H7V7h10v2z" style="fill: url(#gradient-3);"/>
</svg>