<?xml version="1.0" encoding="utf-8"?>
<svg viewBox="0 0 24 24" width="24" height="24" xmlns="http://www.w3.org/2000/svg">
  <defs>
    <linearGradient id="gradient-0" gradientUnits="userSpaceOnUse" x1="11.5" y1="3" x2="11.5" y2="21">
      <stop offset="0" style="stop-color: rgb(248, 130, 61);"/>
      <stop offset="1" style="stop-color: rgb(232, 63, 93);"/>
    </linearGradient>
  </defs>
  <path d="M0 0h24v24H0z" fill="none"/>
  <path d="M13 3c-4.97 0-9 4.03-9 9H1l3.89 3.89.07.14L9 12H6c0-3.87 3.13-7 7-7s7 3.13 7 7-3.13 7-7 7c-1.93 0-3.68-.79-4.94-2.06l-1.42 1.42C8.27 19.99 10.51 21 13 21c4.97 0 9-4.03 9-9s-4.03-9-9-9zm-1 5v5l4.28 2.54.72-1.21-3.5-2.08V8H12z" style="fill: url(#gradient-0);"/>
</svg>