<?xml version="1.0" encoding="utf-8"?>
<svg viewBox="0 0 24 24" width="24" height="24" xmlns="http://www.w3.org/2000/svg">
  <defs>
    <linearGradient id="gradient-0" gradientUnits="userSpaceOnUse" x1="12" y1="0" x2="12" y2="24">
      <stop offset="0" style="stop-color: rgb(248, 130, 61);"/>
      <stop offset="1" style="stop-color: rgb(232, 62, 93);"/>
    </linearGradient>
  </defs>
  <g fill="none" fill-rule="evenodd">
    <mask id="b" fill="#fff">
      <path d="M 8.1 13.34 L 10.93 10.51 L 3.91 3.5 C 2.35 5.064 2.35 7.596 3.91 9.16 L 8.1 13.34 Z M 14.88 11.53 C 16.41 12.24 18.56 11.74 20.15 10.15 C 22.06 8.24 22.43 5.5 20.96 4.03 C 19.5 2.57 16.76 2.93 14.84 4.84 C 13.25 6.43 12.75 8.58 13.46 10.11 L 3.7 19.87 L 5.11 21.28 L 12 14.41 L 18.88 21.29 L 20.29 19.88 L 13.41 13 L 14.88 11.53 Z"/>
    </mask>
    <g fill="#80868B" mask="url(#b)">
      <path d="M0 0h24v24H0z" style="fill: url(#gradient-0);"/>
    </g>
  </g>
</svg>